<svg id="visual" viewBox="0 0 900 600" width="900" height="600" xmlns="http://www.w3.org/2000/svg" xmlns:xlink="http://www.w3.org/1999/xlink" version="1.1"><g fill="#edf7ee"><circle r="66" cx="882" cy="514"></circle><circle r="5" cx="393" cy="161"></circle><circle r="62" cx="522" cy="135"></circle><circle r="48" cx="686" cy="47"></circle><circle r="40" cx="243" cy="175"></circle><circle r="16" cx="649" cy="515"></circle><circle r="56" cx="195" cy="413"></circle><circle r="41" cx="471" cy="477"></circle><circle r="62" cx="32" cy="587"></circle><circle r="52" cx="100" cy="307"></circle><circle r="20" cx="574" cy="333"></circle><circle r="17" cx="313" cy="340"></circle><circle r="27" cx="306" cy="38"></circle><circle r="7" cx="777" cy="252"></circle><circle r="51" cx="755" cy="434"></circle><circle r="8" cx="870" cy="121"></circle><circle r="47" cx="301" cy="543"></circle><circle r="23" cx="439" cy="299"></circle><circle r="11" cx="147" cy="35"></circle><circle r="40" cx="73" cy="163"></circle><circle r="30" cx="13" cy="433"></circle><circle r="64" cx="437" cy="11"></circle><circle r="10" cx="895" cy="347"></circle><circle r="56" cx="15" cy="45"></circle><circle r="57" cx="164" cy="573"></circle><circle r="4" cx="649" cy="199"></circle></g></svg>