<svg id="visual" viewBox="0 0 900 600" width="900" height="600" xmlns="http://www.w3.org/2000/svg" xmlns:xlink="http://www.w3.org/1999/xlink" version="1.1"><g fill="#effbf7"><circle r="49" cx="897" cy="559"></circle><circle r="31" cx="469" cy="274"></circle><circle r="37" cx="805" cy="319"></circle><circle r="36" cx="15" cy="469"></circle><circle r="45" cx="520" cy="484"></circle><circle r="47" cx="113" cy="402"></circle><circle r="42" cx="861" cy="3"></circle><circle r="34" cx="668" cy="61"></circle><circle r="39" cx="678" cy="187"></circle><circle r="39" cx="322" cy="357"></circle><circle r="42" cx="428" cy="108"></circle><circle r="31" cx="63" cy="264"></circle><circle r="36" cx="554" cy="127"></circle><circle r="34" cx="433" cy="413"></circle><circle r="32" cx="773" cy="225"></circle><circle r="36" cx="786" cy="471"></circle><circle r="43" cx="637" cy="405"></circle><circle r="38" cx="626" cy="584"></circle><circle r="30" cx="117" cy="84"></circle><circle r="36" cx="192" cy="176"></circle><circle r="32" cx="358" cy="253"></circle><circle r="36" cx="262" cy="76"></circle></g></svg>