<svg xmlns="http://www.w3.org/2000/svg" viewBox="0 0 181.1 96.6"><defs><style>.cls-1{fill:#04d17f;}.cls-2{fill:#444;}</style></defs><g id="Layer_2" data-name="Layer 2"><g id="Layer_1-2" data-name="Layer 1"><path class="cls-1" d="M.06,82.72H4.38a.07.07,0,0,1,.06.07V93.31h9.72s.06,0,.06.06v3.17a.05.05,0,0,1-.06.06H.06A.05.05,0,0,1,0,96.54V82.79C0,82.74,0,82.72.06,82.72Z"/><path class="cls-1" d="M20.37,82.72h4.32a.07.07,0,0,1,.06.07V96.54a.05.05,0,0,1-.06.06H20.37a.05.05,0,0,1-.06-.06V82.79C20.31,82.74,20.33,82.72,20.37,82.72Z"/><path class="cls-1" d="M30.91,82.72H46.24a.07.07,0,0,1,.06.07V86a.05.05,0,0,1-.06.06h-11v2.15h11s.06,0,.06,0v2.9s0,0-.06,0h-11v5.38a.05.05,0,0,1-.06.06H30.91c-.05,0-.07,0-.07-.06V82.79C30.85,82.74,30.87,82.72,30.91,82.72Z"/><path class="cls-1" d="M52.46,82.72H67.79a.07.07,0,0,1,.06.07V86a.05.05,0,0,1-.06.06H52.46c-.05,0-.07,0-.07-.06V82.79C52.4,82.74,52.42,82.72,52.46,82.72Zm0,5.44H67.79s.06,0,.06,0v2.9s0,0-.06,0H52.46c-.05,0-.07,0-.07,0v-2.9A.07.07,0,0,1,52.46,88.16Zm0,5.15H67.79s.06,0,.06.06v3.17a.05.05,0,0,1-.06.06H52.46c-.05,0-.07,0-.07-.06V93.37A.07.07,0,0,1,52.46,93.31Z"/><path class="cls-2" d="M78.22,82.72H91.88c.05,0,.07,0,.07.07V86s0,.06-.07.06H80.77a2.26,2.26,0,0,0-2.33,1.78,3,3,0,0,0-.06.67v2.43a2.25,2.25,0,0,0,1.55,2.32,2.4,2.4,0,0,0,.91.13h11c.05,0,.07,0,.07.06v3.14s0,.06-.07.06H78.29a4.47,4.47,0,0,1-3.85-2,3.29,3.29,0,0,1-.5-1.71V86.35a3.63,3.63,0,0,1,1.77-2.89A4.8,4.8,0,0,1,78.22,82.72Z"/><path class="cls-2" d="M98,82.66h5.4q.11.07,3.17,3.72c1.56-1.92,2.61-3.16,3.13-3.72h5.4v0l-6.45,7.77v6.08a.05.05,0,0,1-.06.06h-4a.05.05,0,0,1-.06-.06V90.49L98,82.69Z"/><path class="cls-2" d="M125.52,82.72h13.65c.05,0,.07,0,.07.07V86s0,.06-.07.06H128.06a2.26,2.26,0,0,0-2.33,1.78,3.9,3.9,0,0,0,0,.67v2.43a2.25,2.25,0,0,0,1.54,2.32,2.4,2.4,0,0,0,.91.13h11c.05,0,.07,0,.07.06v3.14s0,.06-.07.06H125.58a4.47,4.47,0,0,1-3.85-2,3.29,3.29,0,0,1-.5-1.71V86.35A3.63,3.63,0,0,1,123,83.46,4.84,4.84,0,0,1,125.52,82.72Z"/><path class="cls-2" d="M145.4,82.72h4.31a.07.07,0,0,1,.06.07V93.31h9.72s.06,0,.06.06v3.17a.05.05,0,0,1-.06.06H145.4c-.05,0-.07,0-.07-.06V82.79C145.34,82.74,145.36,82.72,145.4,82.72Z"/><path class="cls-2" d="M165.7,82.72H181a.07.07,0,0,1,.06.07V86A.05.05,0,0,1,181,86H165.7a.05.05,0,0,1-.06-.06V82.79C165.64,82.74,165.66,82.72,165.7,82.72Zm0,5.44H181s.06,0,.06,0v2.9s0,0-.06,0H165.7s-.06,0-.06,0v-2.9S165.66,88.16,165.7,88.16Zm0,5.15H181s.06,0,.06.06v3.17a.05.05,0,0,1-.06.06H165.7a.05.05,0,0,1-.06-.06V93.37A.05.05,0,0,1,165.7,93.31Z"/><path class="cls-1" d="M81.92,46.23A20.23,20.23,0,0,1,80.51,52h0l-4.28-2.91,0,2.44.24,11.12L89.25,58l-2.58-1.75L84.45,54.7a25.38,25.38,0,0,0,2.22-10.42c0-.53-.07-1-.1-1.56A50.09,50.09,0,0,0,81.92,46.23Z"/><path class="cls-1" d="M40.41,48.05a20.25,20.25,0,0,1-.35-3.77,20.86,20.86,0,0,1,4.18-12.54,20.58,20.58,0,0,1,2-2.29,21,21,0,0,1,10.26-5.63V29l1.66-1.18,9.39-6.69-9.39-6.7-1.66-1.17v5.83A25.64,25.64,0,0,0,35.4,44.28a23.15,23.15,0,0,0,.17,2.77v0l.23-1.46Z"/><path class="cls-1" d="M71.16,21.12l-4.28,3h0a21,21,0,0,1,13.43,12c.45-.31.93-.62,1.4-.93a41.37,41.37,0,0,0,.11-5.84,24.91,24.91,0,0,0-2.71-3.17A25.26,25.26,0,0,0,71,20.68c-.32-.15-.66-.28-1-.4Z"/><path class="cls-1" d="M74.48,65.67l-.13-5.21A21,21,0,0,1,61,65.24a17.6,17.6,0,0,1-1.79-.08,20.84,20.84,0,0,1-13-6.06,19.29,19.29,0,0,1-1.42-1.58l2-1h0l2.57-1.3-8.3-4.39-3.69-1.95-.61,3.85-1.48,9.56L37.9,61h0l2.65-1.33a25.62,25.62,0,0,0,34.82,5.87c.16-.12.34-.24.5-.38l0,0Z"/><path class="cls-2" d="M127.48,26.06,124.2,12.64a5.66,5.66,0,0,1,2.92-6.4l4.09-2.11L129.08,0,125,2.11a10.29,10.29,0,0,0-5.31,11.62l2.84,11.61c-15.43-.65-27.12,2.51-35.93,7.06.09-5-.61-12.75-4-22.84l6-.9-.69-4.61L71.22,6.55l.69,4.6,6-.89a68.7,68.7,0,0,1,4,19.08,41.37,41.37,0,0,1-.11,5.84c-.47.31-1,.62-1.4.93a54.23,54.23,0,0,0-9.58,8.53A55.69,55.69,0,0,0,59.24,65.16a17.6,17.6,0,0,0,1.79.08A20.72,20.72,0,0,0,64.19,65,51.94,51.94,0,0,1,74.25,47.72c.25-.28.53-.52.78-.79a48,48,0,0,1,6.68-6.1,0,0,0,0,1,0,0A43,43,0,0,1,85.88,38v0a50.88,50.88,0,0,1,5.4-2.78A63.81,63.81,0,0,1,116,30a18.13,18.13,0,0,1,11.52-3.93Z"/><path class="cls-1" d="M142.82,54.47a18.44,18.44,0,0,0-2.14-22.67l1.21,3-4.55.21a13.73,13.73,0,0,1,1.57,16.91,13.56,13.56,0,0,1-3.46,3.65l-.3-.73-.8-1.88-4.91,8,9.15,2-.87-2.07-.42-1A18.25,18.25,0,0,0,142.82,54.47Z"/><path class="cls-1" d="M129.52,58.06a13.73,13.73,0,0,1-15.65-10.67c-.09-.41-.15-.81-.21-1.22l2.83.3-.71-1.26L111.9,38.3l-6.14,6.91-.09.1,3.28.35a19.16,19.16,0,0,0,.36,2.71,18.19,18.19,0,0,0,20.95,14.27L127.13,62Z"/><path class="cls-1" d="M114.39,39.77A14.43,14.43,0,0,1,115.75,37a13.74,13.74,0,0,1,8.67-6,14,14,0,0,1,2.94-.31,13.49,13.49,0,0,1,4.58.83l-.6.92-.93,1.45,9.37-.44-3.47-8.71-1.07,1.66-.72,1.11a18.15,18.15,0,0,0-7-1.46A18.37,18.37,0,0,0,110,38.25l2.18-2.44Z"/></g></g></svg>