<svg id="visual" viewBox="0 0 900 600" width="900" height="600" xmlns="http://www.w3.org/2000/svg" xmlns:xlink="http://www.w3.org/1999/xlink" version="1.1"><path d="M0 323L25 323.5C50 324 100 325 150 326.8C200 328.7 250 331.3 300 334.3C350 337.3 400 340.7 450 346.8C500 353 550 362 600 358.8C650 355.7 700 340.3 750 343.7C800 347 850 369 875 380L900 391L900 601L875 601C850 601 800 601 750 601C700 601 650 601 600 601C550 601 500 601 450 601C400 601 350 601 300 601C250 601 200 601 150 601C100 601 50 601 25 601L0 601Z" fill="#e9fff6"></path><path d="M0 361L25 369.2C50 377.3 100 393.7 150 401.8C200 410 250 410 300 405.7C350 401.3 400 392.7 450 394C500 395.3 550 406.7 600 402.2C650 397.7 700 377.3 750 375.8C800 374.3 850 391.7 875 400.3L900 409L900 601L875 601C850 601 800 601 750 601C700 601 650 601 600 601C550 601 500 601 450 601C400 601 350 601 300 601C250 601 200 601 150 601C100 601 50 601 25 601L0 601Z" fill="#cff9e7"></path><path d="M0 406L25 412.5C50 419 100 432 150 436.3C200 440.7 250 436.3 300 428.7C350 421 400 410 450 403.7C500 397.3 550 395.7 600 397.3C650 399 700 404 750 410.8C800 417.7 850 426.3 875 430.7L900 435L900 601L875 601C850 601 800 601 750 601C700 601 650 601 600 601C550 601 500 601 450 601C400 601 350 601 300 601C250 601 200 601 150 601C100 601 50 601 25 601L0 601Z" fill="#b6f4d8"></path><path d="M0 454L25 457.8C50 461.7 100 469.3 150 470.8C200 472.3 250 467.7 300 462.8C350 458 400 453 450 452.8C500 452.7 550 457.3 600 455.2C650 453 700 444 750 441.8C800 439.7 850 444.3 875 446.7L900 449L900 601L875 601C850 601 800 601 750 601C700 601 650 601 600 601C550 601 500 601 450 601C400 601 350 601 300 601C250 601 200 601 150 601C100 601 50 601 25 601L0 601Z" fill="#9cedc8"></path><path d="M0 487L25 487.7C50 488.3 100 489.7 150 487.7C200 485.7 250 480.3 300 479.5C350 478.7 400 482.3 450 479.2C500 476 550 466 600 464.8C650 463.7 700 471.3 750 470.5C800 469.7 850 460.3 875 455.7L900 451L900 601L875 601C850 601 800 601 750 601C700 601 650 601 600 601C550 601 500 601 450 601C400 601 350 601 300 601C250 601 200 601 150 601C100 601 50 601 25 601L0 601Z" fill="#82e7b6"></path><path d="M0 501L25 501.5C50 502 100 503 150 503C200 503 250 502 300 505C350 508 400 515 450 517.2C500 519.3 550 516.7 600 517.5C650 518.3 700 522.7 750 520.2C800 517.7 850 508.3 875 503.7L900 499L900 601L875 601C850 601 800 601 750 601C700 601 650 601 600 601C550 601 500 601 450 601C400 601 350 601 300 601C250 601 200 601 150 601C100 601 50 601 25 601L0 601Z" fill="#65e0a5"></path><path d="M0 513L25 517.8C50 522.7 100 532.3 150 538.8C200 545.3 250 548.7 300 551.2C350 553.7 400 555.3 450 552.3C500 549.3 550 541.7 600 538.2C650 534.7 700 535.3 750 534.2C800 533 850 530 875 528.5L900 527L900 601L875 601C850 601 800 601 750 601C700 601 650 601 600 601C550 601 500 601 450 601C400 601 350 601 300 601C250 601 200 601 150 601C100 601 50 601 25 601L0 601Z" fill="#44d992"></path><path d="M0 543L25 546.2C50 549.3 100 555.7 150 560.2C200 564.7 250 567.3 300 568.3C350 569.3 400 568.7 450 566.8C500 565 550 562 600 564C650 566 700 573 750 574C800 575 850 570 875 567.5L900 565L900 601L875 601C850 601 800 601 750 601C700 601 650 601 600 601C550 601 500 601 450 601C400 601 350 601 300 601C250 601 200 601 150 601C100 601 50 601 25 601L0 601Z" fill="#04d17f"></path></svg>