<svg xmlns="http://www.w3.org/2000/svg" version="1.1" xmlns:xlink="http://www.w3.org/1999/xlink" xmlns:svgjs="http://svgjs.com/svgjs" width="1440" height="560" preserveAspectRatio="none" viewBox="0 0 1440 560"><g mask="url(&quot;#SvgjsMask1007&quot;)" fill="none"><path d="M856 217L855 -110" stroke-width="10" stroke="url(#SvgjsLinearGradient1008)" stroke-linecap="round" class="Down"></path><path d="M1252 287L1251 437" stroke-width="10" stroke="url(#SvgjsLinearGradient1009)" stroke-linecap="round" class="Up"></path><path d="M448 376L447 161" stroke-width="10" stroke="url(#SvgjsLinearGradient1008)" stroke-linecap="round" class="Down"></path><path d="M1094 257L1093 102" stroke-width="6" stroke="url(#SvgjsLinearGradient1009)" stroke-linecap="round" class="Up"></path><path d="M986 114L985 -155" stroke-width="6" stroke="url(#SvgjsLinearGradient1009)" stroke-linecap="round" class="Up"></path><path d="M447 503L446 250" stroke-width="8" stroke="url(#SvgjsLinearGradient1009)" stroke-linecap="round" class="Up"></path><path d="M173 84L172 -299" stroke-width="8" stroke="url(#SvgjsLinearGradient1009)" stroke-linecap="round" class="Up"></path><path d="M259 283L258 63" stroke-width="8" stroke="url(#SvgjsLinearGradient1008)" stroke-linecap="round" class="Down"></path><path d="M374 422L373 95" stroke-width="10" stroke="url(#SvgjsLinearGradient1009)" stroke-linecap="round" class="Up"></path><path d="M787 130L786 308" stroke-width="10" stroke="url(#SvgjsLinearGradient1008)" stroke-linecap="round" class="Down"></path><path d="M5 318L4 481" stroke-width="8" stroke="url(#SvgjsLinearGradient1008)" stroke-linecap="round" class="Down"></path><path d="M466 483L465 297" stroke-width="8" stroke="url(#SvgjsLinearGradient1009)" stroke-linecap="round" class="Up"></path><path d="M227 138L226 -193" stroke-width="10" stroke="url(#SvgjsLinearGradient1009)" stroke-linecap="round" class="Up"></path><path d="M1234 110L1233 361" stroke-width="10" stroke="url(#SvgjsLinearGradient1008)" stroke-linecap="round" class="Down"></path><path d="M945 398L944 241" stroke-width="8" stroke="url(#SvgjsLinearGradient1008)" stroke-linecap="round" class="Down"></path><path d="M581 525L580 161" stroke-width="6" stroke="url(#SvgjsLinearGradient1009)" stroke-linecap="round" class="Up"></path><path d="M566 555L565 292" stroke-width="10" stroke="url(#SvgjsLinearGradient1008)" stroke-linecap="round" class="Down"></path><path d="M130 462L129 202" stroke-width="8" stroke="url(#SvgjsLinearGradient1008)" stroke-linecap="round" class="Down"></path><path d="M339 296L338 544" stroke-width="6" stroke="url(#SvgjsLinearGradient1008)" stroke-linecap="round" class="Down"></path><path d="M98 120L97 484" stroke-width="10" stroke="url(#SvgjsLinearGradient1008)" stroke-linecap="round" class="Down"></path><path d="M164 523L163 139" stroke-width="6" stroke="url(#SvgjsLinearGradient1009)" stroke-linecap="round" class="Up"></path><path d="M625 460L624 52" stroke-width="10" stroke="url(#SvgjsLinearGradient1008)" stroke-linecap="round" class="Down"></path><path d="M477 167L476 352" stroke-width="6" stroke="url(#SvgjsLinearGradient1008)" stroke-linecap="round" class="Down"></path><path d="M1098 438L1097 673" stroke-width="10" stroke="url(#SvgjsLinearGradient1009)" stroke-linecap="round" class="Up"></path><path d="M1320 332L1319 165" stroke-width="8" stroke="url(#SvgjsLinearGradient1008)" stroke-linecap="round" class="Down"></path><path d="M1124 253L1123 9" stroke-width="6" stroke="url(#SvgjsLinearGradient1008)" stroke-linecap="round" class="Down"></path><path d="M148 495L147 723" stroke-width="8" stroke="url(#SvgjsLinearGradient1009)" stroke-linecap="round" class="Up"></path><path d="M411 426L410 705" stroke-width="10" stroke="url(#SvgjsLinearGradient1008)" stroke-linecap="round" class="Down"></path><path d="M938 142L937 -106" stroke-width="6" stroke="url(#SvgjsLinearGradient1008)" stroke-linecap="round" class="Down"></path><path d="M108 380L107 674" stroke-width="6" stroke="url(#SvgjsLinearGradient1008)" stroke-linecap="round" class="Down"></path><path d="M705 331L704 -85" stroke-width="6" stroke="url(#SvgjsLinearGradient1009)" stroke-linecap="round" class="Up"></path><path d="M1277 206L1276 517" stroke-width="10" stroke="url(#SvgjsLinearGradient1008)" stroke-linecap="round" class="Down"></path><path d="M490 213L489 533" stroke-width="8" stroke="url(#SvgjsLinearGradient1009)" stroke-linecap="round" class="Up"></path><path d="M1175 490L1174 693" stroke-width="8" stroke="url(#SvgjsLinearGradient1009)" stroke-linecap="round" class="Up"></path><path d="M624 142L623 -38" stroke-width="6" stroke="url(#SvgjsLinearGradient1009)" stroke-linecap="round" class="Up"></path><path d="M1306 46L1305 -230" stroke-width="8" stroke="url(#SvgjsLinearGradient1008)" stroke-linecap="round" class="Down"></path></g><defs><mask id="SvgjsMask1007"><rect width="1440" height="560" fill="#ffffff"></rect></mask><linearGradient x1="0%" y1="0%" x2="0%" y2="100%" id="SvgjsLinearGradient1008"><stop stop-color="rgba(214, 254, 238, 0)" offset="0"></stop><stop stop-color="rgba(214, 254, 238, 1)" offset="1"></stop></linearGradient><linearGradient x1="0%" y1="100%" x2="0%" y2="0%" id="SvgjsLinearGradient1009"><stop stop-color="rgba(214, 254, 238, 0)" offset="0"></stop><stop stop-color="rgba(214, 254, 238, 1)" offset="1"></stop></linearGradient></defs></svg>