<svg id="visual" viewBox="0 0 900 600" width="900" height="600" xmlns="http://www.w3.org/2000/svg" xmlns:xlink="http://www.w3.org/1999/xlink" version="1.1"><path d="M0 63L37.5 67C75 71 150 79 225 77.8C300 76.7 375 66.3 450 73.2C525 80 600 104 675 104.5C750 105 825 82 862.5 70.5L900 59L900 601L862.5 601C825 601 750 601 675 601C600 601 525 601 450 601C375 601 300 601 225 601C150 601 75 601 37.5 601L0 601Z" fill="#d6feee"></path><path d="M0 158L37.5 158.8C75 159.7 150 161.3 225 164.3C300 167.3 375 171.7 450 178.8C525 186 600 196 675 189.7C750 183.3 825 160.7 862.5 149.3L900 138L900 601L862.5 601C825 601 750 601 675 601C600 601 525 601 450 601C375 601 300 601 225 601C150 601 75 601 37.5 601L0 601Z" fill="#b5f6db"></path><path d="M0 228L37.5 237.8C75 247.7 150 267.3 225 274.2C300 281 375 275 450 265.7C525 256.3 600 243.7 675 236.3C750 229 825 227 862.5 226L900 225L900 601L862.5 601C825 601 750 601 675 601C600 601 525 601 450 601C375 601 300 601 225 601C150 601 75 601 37.5 601L0 601Z" fill="#95edc6"></path><path d="M0 347L37.5 345C75 343 150 339 225 339.3C300 339.7 375 344.3 450 341.3C525 338.3 600 327.7 675 323.7C750 319.7 825 322.3 862.5 323.7L900 325L900 601L862.5 601C825 601 750 601 675 601C600 601 525 601 450 601C375 601 300 601 225 601C150 601 75 601 37.5 601L0 601Z" fill="#73e4b0"></path><path d="M0 444L37.5 448C75 452 150 460 225 454.8C300 449.7 375 431.3 450 427.8C525 424.3 600 435.7 675 431.2C750 426.7 825 406.3 862.5 396.2L900 386L900 601L862.5 601C825 601 750 601 675 601C600 601 525 601 450 601C375 601 300 601 225 601C150 601 75 601 37.5 601L0 601Z" fill="#4cdb98"></path><path d="M0 487L37.5 487.2C75 487.3 150 487.7 225 495C300 502.3 375 516.7 450 527.3C525 538 600 545 675 543.2C750 541.3 825 530.7 862.5 525.3L900 520L900 601L862.5 601C825 601 750 601 675 601C600 601 525 601 450 601C375 601 300 601 225 601C150 601 75 601 37.5 601L0 601Z" fill="#04d17f"></path></svg>